<?xml version="1.0" standalone="no"?>
<!DOCTYPE svg PUBLIC "-//W3C//DTD SVG 20010904//EN"
 "http://www.w3.org/TR/2001/REC-SVG-20010904/DTD/svg10.dtd">
<svg version="1.0" xmlns="http://www.w3.org/2000/svg"
 width="832.000000pt" height="832.000000pt" viewBox="0 0 832.000000 832.000000"
 preserveAspectRatio="xMidYMid meet">
<metadata>
Created by potrace 1.11, written by Peter Selinger 2001-2013
</metadata>
<g transform="translate(0.000000,832.000000) scale(0.100000,-0.100000)"
fill="#000000" stroke="none">
<path d="M1419 7536 c-2 -2 -26 -6 -54 -9 -49 -6 -96 -14 -125 -22 -8 -2 -31
-7 -50 -10 -65 -11 -214 -67 -320 -119 -90 -45 -239 -137 -276 -171 -6 -5 -44
-39 -84 -75 -190 -170 -354 -421 -433 -665 -38 -117 -48 -159 -67 -285 -5 -30
-9 -935 -9 -2010 0 -2134 -2 -2034 60 -2258 111 -400 405 -760 780 -954 131
-68 282 -123 399 -145 176 -32 158 -32 2960 -30 l2755 2 105 23 c169 37 353
108 500 193 133 76 355 278 440 399 14 19 28 37 31 40 4 3 31 46 61 95 115
193 180 376 218 620 10 70 8 3969 -3 4030 -4 22 -9 51 -12 65 -3 14 -7 34 -9
45 -42 221 -176 499 -329 680 -233 278 -591 488 -917 539 -19 3 -46 9 -60 13
-25 8 -5553 17 -5561 9z m5506 -528 c17 -4 44 -9 60 -12 60 -11 179 -57 261
-100 291 -155 500 -454 542 -776 4 -30 7 -928 7 -1995 l0 -1940 -27 -100 c-62
-225 -201 -434 -380 -571 -122 -93 -318 -179 -458 -201 -30 -4 -1286 -8 -2790
-8 l-2735 0 -89 24 c-364 96 -631 347 -750 704 -9 27 -19 65 -22 85 -3 21 -10
57 -14 82 -11 53 -8 3934 2 3968 4 12 16 57 28 98 88 321 358 599 684 704 154
50 29 48 2931 46 1496 -1 2734 -5 2750 -8z"/>
<path d="M1983 6016 c-215 -68 -284 -346 -125 -513 82 -86 219 -117 334 -73
78 29 148 100 178 179 76 203 -75 423 -288 420 -31 0 -76 -6 -99 -13z"/>
<path d="M3300 5973 c-40 -6 -122 -74 -150 -123 -18 -33 -25 -62 -27 -111 -2
-91 12 -137 59 -192 76 -90 -99 -82 1758 -82 l1645 0 40 22 c78 42 120 106
131 198 14 116 -35 217 -130 268 l-41 22 -1630 1 c-896 1 -1641 -1 -1655 -3z"/>
<path d="M1963 4450 c-69 -28 -147 -107 -173 -177 -57 -152 11 -322 158 -395
64 -32 195 -33 262 -2 58 27 128 97 153 154 31 68 34 172 8 242 -26 66 -91
136 -159 170 -66 32 -178 35 -249 8z"/>
<path d="M3303 4411 c-52 -13 -96 -44 -135 -96 -40 -53 -47 -80 -44 -175 4
-101 44 -166 131 -213 40 -22 41 -22 875 -25 584 -2 850 0 886 8 61 13 124 63
157 124 31 58 31 192 0 251 -25 47 -64 85 -113 111 -33 18 -76 19 -880 21
-465 1 -859 -2 -877 -6z"/>
<path d="M1963 2890 c-120 -48 -199 -175 -191 -307 15 -269 335 -391 526 -202
68 68 95 138 90 234 -7 119 -70 215 -174 266 -68 33 -179 37 -251 9z"/>
<path d="M3305 2851 c-69 -17 -125 -63 -161 -131 -14 -26 -19 -56 -19 -120 0
-64 5 -94 19 -120 26 -49 64 -88 111 -113 l40 -22 1385 0 1385 0 40 22 c47 25
86 64 111 113 26 50 26 191 0 240 -26 49 -64 88 -111 113 l-40 22 -1365 2
c-751 0 -1378 -2 -1395 -6z"/>
</g>
</svg>
